<svg width="140" height="132" viewBox="0 0 140 132" fill="none" xmlns="http://www.w3.org/2000/svg">
<g filter="url(#filter0_f_93_59)">
<path fill-rule="evenodd" clip-rule="evenodd" d="M62 69.0324C62 68.0215 64.1124 67.1625 67.0531 66.8503C67.2926 67.1172 67.5186 67.368 67.7293 67.6013C65.7335 67.7621 64.3077 68.1872 64.3077 68.6863C64.3077 69.3235 66.6323 69.8401 69.5 69.8401C72.3676 69.8401 74.6923 69.3235 74.6923 68.6863C74.6923 68.1912 73.2891 67.7689 71.3182 67.6052C71.5218 67.3714 71.7402 67.1201 71.9719 66.853C74.8996 67.1674 77 68.0244 77 69.0324C77 70.3069 73.6421 71.3401 69.5 71.3401C65.3579 71.3401 62 70.3069 62 69.0324Z" fill="#7D3E4D"/>
<path fill-rule="evenodd" clip-rule="evenodd" d="M69.6276 68.8C69.6276 68.8 63.1849 59.1646 60.9043 53.8077C60.3242 52.5591 60 51.1651 60 49.6947C60 44.3405 64.2981 40 69.6 40C74.9019 40 79.2 44.3405 79.2 49.6947C79.2 50.8729 78.9919 52.002 78.6107 53.0466H78.6209C77.0927 57.1108 69.6276 68.8 69.6276 68.8ZM75.2 50C75.2 53.0928 72.6928 55.6 69.6 55.6C66.5072 55.6 64 53.0928 64 50C64 46.9072 66.5072 44.4 69.6 44.4C72.6928 44.4 75.2 46.9072 75.2 50Z" fill="#7D3E4D"/>
</g>
<g filter="url(#filter1_f_93_59)">
<path fill-rule="evenodd" clip-rule="evenodd" d="M62 69.0324C62 68.0215 64.1124 67.1625 67.0531 66.8503C67.2926 67.1172 67.5186 67.368 67.7293 67.6013C65.7335 67.7621 64.3077 68.1872 64.3077 68.6863C64.3077 69.3235 66.6323 69.8401 69.5 69.8401C72.3676 69.8401 74.6923 69.3235 74.6923 68.6863C74.6923 68.1912 73.2891 67.7689 71.3182 67.6052C71.5218 67.3714 71.7402 67.1201 71.9719 66.853C74.8996 67.1674 77 68.0244 77 69.0324C77 70.3069 73.6421 71.3401 69.5 71.3401C65.3579 71.3401 62 70.3069 62 69.0324Z" fill="#7D3E4D"/>
<path fill-rule="evenodd" clip-rule="evenodd" d="M69.6276 68.8C69.6276 68.8 63.1849 59.1646 60.9043 53.8077C60.3242 52.5591 60 51.1651 60 49.6947C60 44.3405 64.2981 40 69.6 40C74.9019 40 79.2 44.3405 79.2 49.6947C79.2 50.8729 78.9919 52.002 78.6107 53.0466H78.6209C77.0927 57.1108 69.6276 68.8 69.6276 68.8ZM75.2 50C75.2 53.0928 72.6928 55.6 69.6 55.6C66.5072 55.6 64 53.0928 64 50C64 46.9072 66.5072 44.4 69.6 44.4C72.6928 44.4 75.2 46.9072 75.2 50Z" fill="#7D3E4D"/>
</g>
<g filter="url(#filter2_f_93_59)">
<path fill-rule="evenodd" clip-rule="evenodd" d="M62 69.0324C62 68.0215 64.1124 67.1625 67.0531 66.8503C67.2926 67.1172 67.5186 67.368 67.7293 67.6013C65.7335 67.7621 64.3077 68.1872 64.3077 68.6863C64.3077 69.3235 66.6323 69.8401 69.5 69.8401C72.3676 69.8401 74.6923 69.3235 74.6923 68.6863C74.6923 68.1912 73.2891 67.7689 71.3182 67.6052C71.5218 67.3714 71.7402 67.1201 71.9719 66.853C74.8996 67.1674 77 68.0244 77 69.0324C77 70.3069 73.6421 71.3401 69.5 71.3401C65.3579 71.3401 62 70.3069 62 69.0324Z" fill="#7D3E4D"/>
<path fill-rule="evenodd" clip-rule="evenodd" d="M69.6276 68.8C69.6276 68.8 63.1849 59.1646 60.9043 53.8077C60.3242 52.5591 60 51.1651 60 49.6947C60 44.3405 64.2981 40 69.6 40C74.9019 40 79.2 44.3405 79.2 49.6947C79.2 50.8729 78.9919 52.002 78.6107 53.0466H78.6209C77.0927 57.1108 69.6276 68.8 69.6276 68.8ZM75.2 50C75.2 53.0928 72.6928 55.6 69.6 55.6C66.5072 55.6 64 53.0928 64 50C64 46.9072 66.5072 44.4 69.6 44.4C72.6928 44.4 75.2 46.9072 75.2 50Z" fill="#7D3E4D"/>
</g>
<path fill-rule="evenodd" clip-rule="evenodd" d="M62 69.0324C62 68.0215 64.1124 67.1625 67.0531 66.8503C67.2926 67.1172 67.5186 67.368 67.7293 67.6013C65.7335 67.7621 64.3077 68.1872 64.3077 68.6863C64.3077 69.3235 66.6323 69.8401 69.5 69.8401C72.3676 69.8401 74.6923 69.3235 74.6923 68.6863C74.6923 68.1912 73.2891 67.7689 71.3182 67.6052C71.5218 67.3714 71.7402 67.1201 71.9719 66.853C74.8996 67.1674 77 68.0244 77 69.0324C77 70.3069 73.6421 71.3401 69.5 71.3401C65.3579 71.3401 62 70.3069 62 69.0324Z" fill="#FF85A2" fill-opacity="0.62"/>
<path fill-rule="evenodd" clip-rule="evenodd" d="M69.6276 68.8C69.6276 68.8 63.1849 59.1646 60.9043 53.8077C60.3242 52.5591 60 51.1651 60 49.6947C60 44.3405 64.2981 40 69.6 40C74.9019 40 79.2 44.3405 79.2 49.6947C79.2 50.8729 78.9919 52.002 78.6107 53.0466H78.6209C77.0927 57.1108 69.6276 68.8 69.6276 68.8ZM75.2 50C75.2 53.0928 72.6928 55.6 69.6 55.6C66.5072 55.6 64 53.0928 64 50C64 46.9072 66.5072 44.4 69.6 44.4C72.6928 44.4 75.2 46.9072 75.2 50Z" fill="#FF85A2" fill-opacity="0.62"/>
<defs>
<filter id="filter0_f_93_59" x="0" y="-20" width="139.2" height="151.34" filterUnits="userSpaceOnUse" color-interpolation-filters="sRGB">
<feFlood flood-opacity="0" result="BackgroundImageFix"/>
<feBlend mode="normal" in="SourceGraphic" in2="BackgroundImageFix" result="shape"/>
<feGaussianBlur stdDeviation="30" result="effect1_foregroundBlur_93_59"/>
</filter>
<filter id="filter1_f_93_59" x="45" y="25" width="49.2" height="61.3401" filterUnits="userSpaceOnUse" color-interpolation-filters="sRGB">
<feFlood flood-opacity="0" result="BackgroundImageFix"/>
<feBlend mode="normal" in="SourceGraphic" in2="BackgroundImageFix" result="shape"/>
<feGaussianBlur stdDeviation="7.5" result="effect1_foregroundBlur_93_59"/>
</filter>
<filter id="filter2_f_93_59" x="58" y="38" width="23.2" height="35.3401" filterUnits="userSpaceOnUse" color-interpolation-filters="sRGB">
<feFlood flood-opacity="0" result="BackgroundImageFix"/>
<feBlend mode="normal" in="SourceGraphic" in2="BackgroundImageFix" result="shape"/>
<feGaussianBlur stdDeviation="1" result="effect1_foregroundBlur_93_59"/>
</filter>
</defs>
</svg>
