<svg width="23" height="20" viewBox="0 0 23 20" fill="none" xmlns="http://www.w3.org/2000/svg">
<path d="M0.768877 9.28842L5.86904 11.1902L7.85722 17.587C7.94366 18.0192 8.46233 18.1056 8.8081 17.8463L11.6607 15.5123C11.92 15.253 12.3523 15.253 12.698 15.5123L17.7982 19.2294C18.1439 19.4887 18.6626 19.3158 18.7491 18.8836L22.5525 0.730558C22.639 0.298343 22.2068 -0.133868 21.7746 0.0390177L0.768877 8.16467C0.250218 8.33755 0.250218 9.11554 0.768877 9.28842ZM7.5979 10.2393L17.6253 4.10184C17.7982 4.0154 17.9711 4.27473 17.7982 4.36117L9.58608 12.0546C9.32675 12.3139 9.06742 12.6597 9.06742 13.0919L8.8081 15.1666C8.8081 15.4259 8.37588 15.5123 8.28943 15.1666L7.25211 11.3631C6.99278 10.9308 7.16568 10.4122 7.5979 10.2393Z" fill="#A75A6C"/>
</svg>
