<svg width="21" height="21" viewBox="0 0 21 21" fill="none" xmlns="http://www.w3.org/2000/svg">
<path d="M18.1062 -1.52588e-05H3.55876C1.91631 -1.52588e-05 0.664917 1.25138 0.664917 2.89383V17.4413C0.664917 19.0837 1.91631 20.3351 3.55876 20.3351H18.1062C19.7487 20.3351 21.0001 19.0837 21.0001 17.4413V2.89383C21.0001 1.25138 19.7487 -1.52588e-05 18.1062 -1.52588e-05ZM10.8325 16.2681C14.1956 16.2681 16.933 13.6089 16.933 10.4022C16.933 9.8547 16.8548 9.22901 16.6984 8.75974H18.4191V17.0502C18.4191 17.4413 18.1062 17.8323 17.6369 17.8323H4.02804C3.63698 17.8323 3.24592 17.5195 3.24592 17.0502V8.68152H5.0448C4.88837 9.22901 4.81016 9.77649 4.81016 10.324C4.73195 13.6089 7.46937 16.2681 10.8325 16.2681ZM10.8325 13.9217C8.64255 13.9217 6.92188 12.2011 6.92188 10.0893C6.92188 7.97762 8.64255 6.25695 10.8325 6.25695C13.0224 6.25695 14.7431 7.97762 14.7431 10.0893C14.7431 12.2793 13.0224 13.9217 10.8325 13.9217ZM18.3408 5.55304C18.3408 6.02231 17.9498 6.41337 17.4805 6.41337H15.2906C14.8213 6.41337 14.4302 6.02231 14.4302 5.55304V3.44131C14.4302 2.97204 14.8213 2.58098 15.2906 2.58098H17.4805C17.9498 2.58098 18.3408 2.97204 18.3408 3.44131V5.55304Z" fill="#A75A6C"/>
</svg>
