<svg width="24" height="15" viewBox="0 0 24 15" fill="none" xmlns="http://www.w3.org/2000/svg">
<path d="M23.7305 12.7141C23.7305 12.6218 23.6382 12.6218 23.6382 12.5295C23.2689 11.791 22.4382 10.8679 21.3305 9.85254C20.7766 9.391 20.4997 9.02175 20.315 8.83713C20.0381 8.4679 20.0381 8.19098 20.1304 7.82174C20.2228 7.54481 20.592 7.08325 21.2381 6.25247C21.6074 5.79092 21.792 5.514 22.0689 5.23708C23.4536 3.39089 24.0997 2.19086 23.9151 1.63701L23.8228 1.54471C23.7305 1.4524 23.6382 1.36009 23.4536 1.36009C23.2689 1.26778 22.992 1.26778 22.7151 1.36009H19.2074C19.115 1.36009 19.115 1.36009 18.9304 1.36009C18.8381 1.36009 18.7458 1.36009 18.7458 1.36009H18.6535H18.5612L18.4689 1.45239C18.3766 1.5447 18.3765 1.5447 18.3765 1.63701C18.0073 2.65241 17.5458 3.48319 17.0842 4.40628C16.8073 4.86783 16.5304 5.32939 16.2534 5.69862C15.9765 6.06786 15.7919 6.34478 15.6073 6.5294C15.4227 6.71402 15.238 6.80633 15.1457 6.99095C15.0534 7.08326 14.8688 7.17557 14.8688 7.08326C14.7765 7.08326 14.6842 7.08326 14.6842 6.99095C14.5919 6.89864 14.4996 6.80633 14.4073 6.71402C14.3149 6.62171 14.3149 6.43709 14.2226 6.25247C14.2226 6.06785 14.2226 5.88323 14.2226 5.79092C14.2226 5.69861 14.2226 5.4217 14.2226 5.23708C14.2226 4.96015 14.2226 4.77552 14.2226 4.68322C14.2226 4.40629 14.2226 4.03706 14.2226 3.66782C14.2226 3.29858 14.2226 3.02165 14.2226 2.83703C14.2226 2.65241 14.2226 2.37549 14.2226 2.19087C14.2226 1.91394 14.2226 1.72932 14.2226 1.63701C14.2226 1.5447 14.1303 1.36008 14.1303 1.26777C14.038 1.17547 13.9457 1.08315 13.8534 0.990844C13.7611 0.898535 13.5765 0.898538 13.4842 0.806228C13.0226 0.713919 12.4688 0.621613 11.8226 0.621613C10.3457 0.621613 9.33025 0.713925 8.96102 0.898543C8.7764 0.990853 8.59178 1.08316 8.49947 1.26777C8.31485 1.45239 8.31485 1.54471 8.40716 1.54471C8.8687 1.63701 9.23795 1.82162 9.42256 2.09855L9.51488 2.28318C9.60719 2.37549 9.60717 2.5601 9.69948 2.83703C9.79179 3.11396 9.7918 3.39089 9.7918 3.76012C9.7918 4.31398 9.7918 4.86784 9.7918 5.23708C9.7918 5.69862 9.69948 5.97554 9.69948 6.25247C9.69948 6.5294 9.60719 6.71402 9.51488 6.80633C9.42257 6.99095 9.42256 7.08326 9.33025 7.08326C9.33025 7.08326 9.33024 7.17556 9.23793 7.17556C9.14563 7.17556 9.05332 7.26788 8.8687 7.26788C8.77639 7.26788 8.59178 7.17557 8.49947 7.08326C8.31485 6.99095 8.13023 6.80633 8.03792 6.62172C7.85331 6.4371 7.66868 6.16016 7.48406 5.79092C7.29945 5.42169 7.02251 5.05246 6.83789 4.4986L6.65329 4.12937C6.56098 3.94475 6.37636 3.57551 6.19174 3.11396C6.00712 2.65241 5.8225 2.28318 5.63788 1.82164C5.54557 1.63702 5.45327 1.5447 5.36096 1.45239H5.26865C5.26865 1.45239 5.17633 1.36009 5.08402 1.36009C4.99171 1.36009 4.89941 1.26777 4.8071 1.26777H1.48396C1.11472 1.26777 0.930108 1.36008 0.837798 1.45239L0.745483 1.54471C0.745483 1.54471 0.745483 1.63701 0.745483 1.72932C0.745483 1.82163 0.745489 1.91393 0.837798 2.09855C1.29934 3.20626 1.8532 4.31398 2.40705 5.42169C2.96091 6.43709 3.51477 7.36019 3.88401 8.00636C4.34555 8.65252 4.71479 9.29869 5.17633 9.85254C5.63788 10.4064 5.9148 10.7756 6.00711 10.9602C6.19173 11.1449 6.28403 11.2372 6.37634 11.3295L6.65329 11.6064C6.8379 11.791 7.11483 12.068 7.48406 12.3449C7.8533 12.6218 8.31484 12.8987 8.77639 13.1757C9.23793 13.4526 9.7918 13.6372 10.3457 13.8218C10.9918 14.0065 11.5457 14.0988 12.0995 14.0065H13.4842C13.7611 14.0065 13.9457 13.9141 14.1303 13.7295L14.2226 13.6372C14.2226 13.5449 14.3149 13.5449 14.3149 13.4526C14.3149 13.3603 14.3149 13.268 14.3149 13.0834C14.3149 12.7141 14.3149 12.4372 14.4073 12.1603C14.4996 11.8833 14.4996 11.6987 14.5919 11.5141C14.6842 11.3295 14.7765 11.2372 14.8688 11.1449C14.9611 11.0526 15.0534 10.9602 15.0534 10.9602H15.1457C15.3303 10.8679 15.6073 10.9602 15.7919 11.1449C16.0688 11.3295 16.3457 11.6064 16.5304 11.8833C16.715 12.1603 16.9919 12.4372 17.3612 12.8064C17.7304 13.1757 18.0073 13.4526 18.1919 13.5449L18.4689 13.7295C18.6535 13.8218 18.8381 13.9141 19.115 14.0065C19.392 14.0988 19.5766 14.0988 19.7612 14.0988L22.8997 14.0065C23.1767 14.0065 23.4536 13.9142 23.6382 13.8218C23.8228 13.7295 23.9151 13.6372 23.9151 13.4526C23.9151 13.3603 23.9151 13.1757 23.9151 13.0834C23.7305 12.8987 23.7305 12.8064 23.7305 12.7141Z" fill="#A75A6C"/>
</svg>
