<svg width="23" height="23" viewBox="0 0 23 23" fill="none" xmlns="http://www.w3.org/2000/svg">
<path d="M21.4635 12.7485C21.5356 12.1723 21.6076 11.6681 21.6076 11.0919C21.6076 5.32986 16.9259 0.576187 11.0919 0.576187C10.5157 0.576187 10.0115 0.648212 9.43531 0.720237C8.49898 0.216061 7.49063 -1.52588e-05 6.48228 -1.52588e-05C2.88101 -1.52588e-05 0 2.881 0 6.48226C0 7.49061 0.216076 8.49897 0.720253 9.4353C0.648228 10.0115 0.576202 10.5157 0.576202 11.0919C0.576202 16.8539 5.25784 21.6076 11.0919 21.6076C11.6681 21.6076 12.1723 21.5355 12.7485 21.4635C13.6848 21.8957 14.6932 22.1838 15.7015 22.1838C19.3028 22.1838 22.1838 19.3028 22.1838 15.7015C22.1838 14.6931 21.8957 13.6848 21.4635 12.7485ZM15.4854 14.9092C15.2694 15.3414 14.9813 15.7015 14.5491 15.9896C14.117 16.2777 13.6848 16.4938 13.1086 16.6378C12.5324 16.7819 11.8842 16.8539 11.1639 16.8539C9.65139 16.8539 8.42696 16.4938 7.56265 15.8455C7.05848 15.4134 6.62633 14.9092 6.41025 14.261C6.12215 13.6848 6.62633 12.9645 7.34658 12.9645H7.56265C7.99481 12.9645 8.42696 13.2526 8.57101 13.6128C8.71506 13.9729 8.93113 14.261 9.21924 14.4771C9.65139 14.8372 10.2996 14.9812 11.0919 14.9812C11.8121 14.9812 12.3883 14.8372 12.8205 14.6211C13.2527 14.405 13.4687 13.9729 13.4687 13.5407C13.4687 13.3247 13.3967 13.1806 13.3247 13.0366C13.2527 12.8925 13.0366 12.7485 12.8925 12.6764C12.6764 12.5324 12.4604 12.4604 12.1002 12.3883C11.8121 12.3163 11.452 12.1723 11.0199 12.1002L10.5877 11.9562C10.0835 11.8121 9.50734 11.6681 9.07518 11.524C8.57101 11.38 8.13886 11.1639 7.77873 10.9478C7.4186 10.7318 7.1305 10.4437 6.91443 10.0115C6.69835 9.65137 6.62633 9.14719 6.62633 8.57099C6.62633 7.99479 6.77038 7.49061 6.98645 7.05846C7.20253 6.62631 7.56265 6.26618 7.92278 6.05011C8.35493 5.76201 8.78708 5.54593 9.36329 5.47391C9.86746 5.32985 10.4437 5.25783 11.0919 5.25783C11.8121 5.25783 12.3883 5.32985 12.9646 5.47391C13.5408 5.61796 13.9729 5.83403 14.4051 6.19416C14.8372 6.48226 15.1253 6.84239 15.3414 7.34656C15.7015 7.99479 15.1973 8.85909 14.4051 8.85909H14.189C13.7568 8.85909 13.3967 8.64302 13.1806 8.28289C13.0366 8.06682 12.8925 7.85074 12.6764 7.63466C12.3163 7.34656 11.7401 7.20251 11.0919 7.20251C10.4437 7.20251 9.93949 7.34656 9.57936 7.56264C9.21924 7.77871 9.07518 8.13884 9.07518 8.49897C9.07518 8.71504 9.14721 8.85909 9.21924 9.00314C9.29126 9.14719 9.43531 9.29125 9.65139 9.36327C9.86746 9.4353 10.0835 9.57935 10.3716 9.65137C10.6597 9.7234 11.0199 9.79542 11.452 9.93947C11.8842 10.0115 12.2443 10.1555 12.6764 10.2276C13.0366 10.2996 13.3967 10.4437 13.7568 10.5157C14.117 10.6597 14.4051 10.8038 14.6932 10.9478C14.9813 11.0919 15.1973 11.308 15.4134 11.524C15.6295 11.7401 15.7735 12.0282 15.8456 12.3163C15.9896 12.6044 15.9896 13.0366 15.9896 13.4687C15.8456 13.9729 15.7015 14.4771 15.4854 14.9092Z" fill="#A75A6C"/>
</svg>
