<svg width="197" height="101" viewBox="0 0 197 101" fill="none" xmlns="http://www.w3.org/2000/svg">
<rect width="197" height="101" fill="#F5F5F5"/>
<g clip-path="url(#clip0_11_17)">
<path d="M106.469 61.2464L106.156 61.8401C104.844 64.2881 104.188 66.1839 104.188 67.5276C104.188 67.9235 104.339 68.3089 104.641 68.6839C104.391 68.7672 103.828 68.9704 102.953 69.2933C102.547 69.4391 102.161 69.512 101.797 69.512C101.068 69.512 100.703 69.1631 100.703 68.4651C100.703 67.0172 101.604 64.8089 103.406 61.8401L103.891 61.0433H103.094C101.385 61.0433 100.062 61.3089 99.125 61.8401C99.6146 60.0797 100.932 59.1995 103.078 59.1995L105.016 59.2464L105.438 58.6214C107.073 56.1631 109.573 52.8558 112.938 48.6995C114.073 47.2933 114.922 46.4183 115.484 46.0745C116.047 45.7308 117.135 45.4183 118.75 45.137C118.448 47.012 118.297 48.7568 118.297 50.3714C118.297 54.6526 118.792 58.9912 119.781 63.387C120.323 65.8037 121.151 67.361 122.266 68.0589C121.286 69.0276 120.448 69.512 119.75 69.512C118.104 69.512 116.833 66.6891 115.938 61.0433C114.219 61.2308 112.484 61.3245 110.734 61.3245L106.469 61.2464ZM107.594 59.4026L110.75 59.4808C112.906 59.4808 114.557 59.4079 115.703 59.262C115.224 55.6058 114.984 52.5745 114.984 50.1683L115 48.9964C114.656 49.4339 113.885 50.3818 112.688 51.8401C110.521 54.4964 108.932 56.8141 107.922 58.7933L107.594 59.4026ZM138.359 62.7464C138.641 63.2568 138.781 63.7047 138.781 64.0901C138.781 65.111 137.917 66.2412 136.188 67.4808C134.469 68.7099 132.901 69.3245 131.484 69.3245C130.234 69.3245 129.214 68.7672 128.422 67.6526C127.641 66.5381 127.25 65.1006 127.25 63.3401C127.25 61.3818 127.766 58.5954 128.797 54.9808L129.516 52.3558H126.875C125.771 52.3558 124.891 52.512 124.234 52.8245C124.839 51.7204 125.339 51.0276 125.734 50.7464C126.13 50.4651 126.802 50.3245 127.75 50.3245H130.109L130.422 49.2464C130.901 47.6422 131.474 46.5433 132.141 45.9495C132.807 45.3454 133.807 45.0433 135.141 45.0433C135.297 45.0433 135.547 45.0537 135.891 45.0745C135.078 46.1162 134.234 47.8662 133.359 50.3245H141.609C143.057 50.3245 144.161 50.137 144.922 49.762C144.661 50.8349 144.312 51.5381 143.875 51.8714C143.448 52.1943 142.646 52.3558 141.469 52.3558H132.688C132.583 52.6995 132.505 52.9547 132.453 53.1214C131.193 57.4131 130.562 60.6526 130.562 62.8401C130.562 65.2568 131.432 66.4651 133.172 66.4651C134.068 66.4651 135.042 66.0849 136.094 65.3245C137.156 64.5641 137.911 63.7047 138.359 62.7464ZM157.906 56.1995C155.75 60.2933 153.583 63.5068 151.406 65.8401C149.229 68.1631 147.302 69.3245 145.625 69.3245C144.406 69.3245 143.422 68.8558 142.672 67.9183C141.922 66.9704 141.547 65.736 141.547 64.2151C141.547 63.361 141.703 62.1526 142.016 60.5901L145.125 44.9339C144.719 44.9964 144.365 45.0276 144.062 45.0276C141.667 45.0276 140.469 44.0276 140.469 42.0276V41.6683C141.719 42.3766 143.13 42.7308 144.703 42.7308C146.276 42.7308 147.651 42.3401 148.828 41.5589L145.203 60.3558C144.88 62.0433 144.719 63.2047 144.719 63.8401C144.719 65.6006 145.365 66.4808 146.656 66.4808C147.906 66.4808 149.161 65.7776 150.422 64.3714C151.693 62.9547 153.771 59.9443 156.656 55.3401L157.906 56.1995ZM166.969 59.387C165.635 62.1474 163.99 64.4964 162.031 66.4339C160.083 68.361 158.385 69.3245 156.938 69.3245C155.833 69.3245 154.948 68.8349 154.281 67.8558C153.625 66.8662 153.297 65.5537 153.297 63.9183C153.297 60.6579 154.281 57.7881 156.25 55.3089C158.229 52.8297 160.516 51.5901 163.109 51.5901C164.682 51.5901 166.385 52.0797 168.219 53.0589C168.49 52.0901 169.594 51.6058 171.531 51.6058C171.656 51.6058 171.859 51.611 172.141 51.6214C171.547 52.5276 171.094 53.7672 170.781 55.3401L170.516 56.6683C170.214 58.1474 170.062 59.8766 170.062 61.8558C170.062 64.137 170.594 65.2776 171.656 65.2776C172.781 65.2776 174.318 64.3401 176.266 62.4651C178.224 60.5797 180.146 58.1839 182.031 55.2776L183.25 56.1214C181.323 59.5589 179.12 62.4287 176.641 64.7308C174.161 67.0224 172.031 68.1683 170.25 68.1683C168 68.1683 166.875 66.2933 166.875 62.5433C166.875 61.762 166.906 60.7099 166.969 59.387ZM167.703 55.6526C165.516 54.2256 163.698 53.512 162.25 53.512C160.677 53.512 159.318 54.4704 158.172 56.387C157.026 58.2933 156.453 60.5589 156.453 63.1839C156.453 65.2881 157.141 66.3401 158.516 66.3401C160.005 66.3401 162.854 63.0693 167.062 56.5276C167.115 56.4443 167.328 56.1526 167.703 55.6526ZM188.219 63.4339C188.573 64.2256 188.75 64.9808 188.75 65.6995C188.75 67.2933 188.083 68.6787 186.75 69.8558C185.417 71.0433 183.854 71.637 182.062 71.637C181.01 71.637 180.115 71.3662 179.375 70.8245C178.635 70.2829 178.266 69.6318 178.266 68.8714C178.266 68.0589 178.771 67.236 179.781 66.4026C180.802 65.5693 182.505 64.5797 184.891 63.4339L183.641 61.4183C182.12 58.9704 181.359 57.0589 181.359 55.6839C181.359 53.7047 182.51 52.111 184.812 50.9026C186.229 51.4443 186.938 52.1266 186.938 52.9495C186.938 54.1162 186.036 55.236 184.234 56.3089L186.016 59.5901L187.406 62.1214C189.396 60.9339 190.896 59.9183 191.906 59.0745C192.917 58.2204 194.193 56.9079 195.734 55.137L196.984 55.9026C194.745 58.9026 191.823 61.4131 188.219 63.4339ZM185.562 64.8401C182.5 66.486 180.969 67.762 180.969 68.6683C180.969 69.5224 181.589 69.9495 182.828 69.9495C183.745 69.9495 184.49 69.637 185.062 69.012C185.635 68.3974 185.922 67.6006 185.922 66.6214C185.922 66.0381 185.802 65.4443 185.562 64.8401Z" fill="#A75A6C"/>
<g filter="url(#filter0_f_11_17)">
<path d="M77.6727 45.7441C78.9855 45.7441 80.0497 44.6799 80.0497 43.3671C80.0497 42.0544 78.9855 40.9902 77.6727 40.9902C76.3599 40.9902 75.2958 42.0544 75.2958 43.3671C75.2958 44.6799 76.3599 45.7441 77.6727 45.7441Z" stroke="#7D3E4D"/>
<path d="M73.5628 51.4979C75.3295 51.4979 76.7617 50.0657 76.7617 48.299C76.7617 46.5323 75.3295 45.1001 73.5628 45.1001C71.7961 45.1001 70.3639 46.5323 70.3639 48.299C70.3639 50.0657 71.7961 51.4979 73.5628 51.4979Z" stroke="#7D3E4D"/>
<path fill-rule="evenodd" clip-rule="evenodd" d="M104.387 49.532C104.387 61.7892 94.4508 71.7256 82.1936 71.7256C69.9364 71.7256 60 61.7892 60 49.532C60 37.2748 69.9364 27.3384 82.1936 27.3384C94.4508 27.3384 104.387 37.2748 104.387 49.532ZM85.4815 46.6551C85.4815 51.8757 81.2494 56.1079 76.0287 56.1079C70.8081 56.1079 66.5759 51.8757 66.5759 46.6551C66.5759 41.4344 70.8081 37.2022 76.0287 37.2022C81.2494 37.2022 85.4815 41.4344 85.4815 46.6551ZM99.0443 54.0529C102.561 54.562 101.846 44.2423 97.4003 38.0242C92.9549 31.8061 84.7939 28.9348 83.5984 31.2816C82.8321 32.7859 84.3211 33.511 86.602 34.6216C88.936 35.758 92.0991 37.2982 94.5234 40.4902C97.2357 44.344 97.4512 47.9927 97.6014 50.5363C97.7204 52.5512 97.7984 53.8726 99.0443 54.0529ZM86.0247 69.1532C79.9087 70.3219 75.09 69.1277 72.0716 67.3288C71.2633 66.8471 71.7206 65.8588 72.6499 66.0067C73.3206 66.1135 73.9315 66.2169 74.499 66.3129C78.2092 66.9407 80.0646 67.2546 84.6596 66.1496C87.9292 65.3634 90.1781 63.4075 91.9267 61.8868C93.4752 60.5402 94.6313 59.5347 95.7564 59.9848C97.8114 60.8068 93.9657 67.6359 86.0247 69.1532ZM78.9057 32.6813C79.8136 32.6813 80.9606 32.3563 80.9606 31.4483C80.9606 29.8044 79.8136 29.8044 78.9057 29.8044C77.9977 29.8044 76.8507 30.2154 76.8507 31.4483C76.8507 32.2703 77.9977 32.6813 78.9057 32.6813Z" fill="#7D3E4D"/>
</g>
<g filter="url(#filter1_f_11_17)">
<path d="M77.6727 45.7441C78.9855 45.7441 80.0497 44.6799 80.0497 43.3671C80.0497 42.0544 78.9855 40.9902 77.6727 40.9902C76.3599 40.9902 75.2958 42.0544 75.2958 43.3671C75.2958 44.6799 76.3599 45.7441 77.6727 45.7441Z" stroke="#7D3E4D"/>
<path d="M73.5628 51.4979C75.3295 51.4979 76.7617 50.0657 76.7617 48.299C76.7617 46.5323 75.3295 45.1001 73.5628 45.1001C71.7961 45.1001 70.3639 46.5323 70.3639 48.299C70.3639 50.0657 71.7961 51.4979 73.5628 51.4979Z" stroke="#7D3E4D"/>
<path fill-rule="evenodd" clip-rule="evenodd" d="M104.387 49.532C104.387 61.7892 94.4508 71.7256 82.1936 71.7256C69.9364 71.7256 60 61.7892 60 49.532C60 37.2748 69.9364 27.3384 82.1936 27.3384C94.4508 27.3384 104.387 37.2748 104.387 49.532ZM85.4815 46.6551C85.4815 51.8757 81.2494 56.1079 76.0287 56.1079C70.8081 56.1079 66.5759 51.8757 66.5759 46.6551C66.5759 41.4344 70.8081 37.2022 76.0287 37.2022C81.2494 37.2022 85.4815 41.4344 85.4815 46.6551ZM99.0443 54.0529C102.561 54.562 101.846 44.2423 97.4003 38.0242C92.9549 31.8061 84.7939 28.9348 83.5984 31.2816C82.8321 32.7859 84.3211 33.511 86.602 34.6216C88.936 35.758 92.0991 37.2982 94.5234 40.4902C97.2357 44.344 97.4512 47.9927 97.6014 50.5363C97.7204 52.5512 97.7984 53.8726 99.0443 54.0529ZM86.0247 69.1532C79.9087 70.3219 75.09 69.1277 72.0716 67.3288C71.2633 66.8471 71.7206 65.8588 72.6499 66.0067C73.3206 66.1135 73.9315 66.2169 74.499 66.3129C78.2092 66.9407 80.0646 67.2546 84.6596 66.1496C87.9292 65.3634 90.1781 63.4075 91.9267 61.8868C93.4752 60.5402 94.6313 59.5347 95.7564 59.9848C97.8114 60.8068 93.9657 67.6359 86.0247 69.1532ZM78.9057 32.6813C79.8136 32.6813 80.9606 32.3563 80.9606 31.4483C80.9606 29.8044 79.8136 29.8044 78.9057 29.8044C77.9977 29.8044 76.8507 30.2154 76.8507 31.4483C76.8507 32.2703 77.9977 32.6813 78.9057 32.6813Z" fill="#7D3E4D"/>
</g>
<g filter="url(#filter2_f_11_17)">
<path d="M77.6727 45.7441C78.9855 45.7441 80.0497 44.6799 80.0497 43.3671C80.0497 42.0544 78.9855 40.9902 77.6727 40.9902C76.3599 40.9902 75.2958 42.0544 75.2958 43.3671C75.2958 44.6799 76.3599 45.7441 77.6727 45.7441Z" stroke="#7D3E4D"/>
<path d="M73.5628 51.4979C75.3295 51.4979 76.7617 50.0657 76.7617 48.299C76.7617 46.5323 75.3295 45.1001 73.5628 45.1001C71.7961 45.1001 70.3639 46.5323 70.3639 48.299C70.3639 50.0657 71.7961 51.4979 73.5628 51.4979Z" stroke="#7D3E4D"/>
<path fill-rule="evenodd" clip-rule="evenodd" d="M104.387 49.532C104.387 61.7892 94.4508 71.7256 82.1936 71.7256C69.9364 71.7256 60 61.7892 60 49.532C60 37.2748 69.9364 27.3384 82.1936 27.3384C94.4508 27.3384 104.387 37.2748 104.387 49.532ZM85.4815 46.6551C85.4815 51.8757 81.2494 56.1079 76.0287 56.1079C70.8081 56.1079 66.5759 51.8757 66.5759 46.6551C66.5759 41.4344 70.8081 37.2022 76.0287 37.2022C81.2494 37.2022 85.4815 41.4344 85.4815 46.6551ZM99.0443 54.0529C102.561 54.562 101.846 44.2423 97.4003 38.0242C92.9549 31.8061 84.7939 28.9348 83.5984 31.2816C82.8321 32.7859 84.3211 33.511 86.602 34.6216C88.936 35.758 92.0991 37.2982 94.5234 40.4902C97.2357 44.344 97.4512 47.9927 97.6014 50.5363C97.7204 52.5512 97.7984 53.8726 99.0443 54.0529ZM86.0247 69.1532C79.9087 70.3219 75.09 69.1277 72.0716 67.3288C71.2633 66.8471 71.7206 65.8588 72.6499 66.0067C73.3206 66.1135 73.9315 66.2169 74.499 66.3129C78.2092 66.9407 80.0646 67.2546 84.6596 66.1496C87.9292 65.3634 90.1781 63.4075 91.9267 61.8868C93.4752 60.5402 94.6313 59.5347 95.7564 59.9848C97.8114 60.8068 93.9657 67.6359 86.0247 69.1532ZM78.9057 32.6813C79.8136 32.6813 80.9606 32.3563 80.9606 31.4483C80.9606 29.8044 79.8136 29.8044 78.9057 29.8044C77.9977 29.8044 76.8507 30.2154 76.8507 31.4483C76.8507 32.2703 77.9977 32.6813 78.9057 32.6813Z" fill="#7D3E4D"/>
</g>
<path d="M77.6727 45.744C78.9855 45.744 80.0497 44.6798 80.0497 43.3671C80.0497 42.0543 78.9855 40.9901 77.6727 40.9901C76.3599 40.9901 75.2958 42.0543 75.2958 43.3671C75.2958 44.6798 76.3599 45.744 77.6727 45.744Z" stroke="#FF85A2" stroke-opacity="0.62"/>
<path d="M73.5628 51.4979C75.3295 51.4979 76.7617 50.0657 76.7617 48.299C76.7617 46.5323 75.3295 45.1001 73.5628 45.1001C71.7961 45.1001 70.3639 46.5323 70.3639 48.299C70.3639 50.0657 71.7961 51.4979 73.5628 51.4979Z" stroke="#FF85A2" stroke-opacity="0.62"/>
<path fill-rule="evenodd" clip-rule="evenodd" d="M104.387 49.532C104.387 61.7892 94.4508 71.7256 82.1936 71.7256C69.9364 71.7256 60 61.7892 60 49.532C60 37.2748 69.9364 27.3384 82.1936 27.3384C94.4508 27.3384 104.387 37.2748 104.387 49.532ZM85.4815 46.6551C85.4815 51.8757 81.2494 56.1079 76.0287 56.1079C70.8081 56.1079 66.5759 51.8757 66.5759 46.6551C66.5759 41.4344 70.8081 37.2022 76.0287 37.2022C81.2494 37.2022 85.4815 41.4344 85.4815 46.6551ZM99.0443 54.0529C102.561 54.562 101.846 44.2423 97.4003 38.0242C92.9549 31.8061 84.7939 28.9348 83.5984 31.2816C82.8321 32.7859 84.3211 33.511 86.602 34.6216C88.936 35.758 92.0991 37.2982 94.5234 40.4902C97.2357 44.344 97.4512 47.9927 97.6014 50.5363C97.7204 52.5512 97.7984 53.8726 99.0443 54.0529ZM86.0247 69.1532C79.9087 70.3219 75.09 69.1277 72.0716 67.3288C71.2633 66.8471 71.7206 65.8588 72.6499 66.0067C73.3206 66.1135 73.9315 66.2169 74.499 66.3129C78.2092 66.9407 80.0646 67.2546 84.6596 66.1496C87.9292 65.3634 90.1781 63.4075 91.9267 61.8868C93.4752 60.5402 94.6313 59.5347 95.7564 59.9848C97.8114 60.8068 93.9657 67.6359 86.0247 69.1532ZM78.9057 32.6813C79.8136 32.6813 80.9606 32.3563 80.9606 31.4483C80.9606 29.8044 79.8136 29.8044 78.9057 29.8044C77.9977 29.8044 76.8507 30.2154 76.8507 31.4483C76.8507 32.2703 77.9977 32.6813 78.9057 32.6813Z" fill="#FF85A2" fill-opacity="0.62"/>
</g>
<defs>
<filter id="filter0_f_11_17" x="0" y="-32.6616" width="164.387" height="164.387" filterUnits="userSpaceOnUse" color-interpolation-filters="sRGB">
<feFlood flood-opacity="0" result="BackgroundImageFix"/>
<feBlend mode="normal" in="SourceGraphic" in2="BackgroundImageFix" result="shape"/>
<feGaussianBlur stdDeviation="30" result="effect1_foregroundBlur_11_17"/>
</filter>
<filter id="filter1_f_11_17" x="45" y="12.3384" width="74.387" height="74.3872" filterUnits="userSpaceOnUse" color-interpolation-filters="sRGB">
<feFlood flood-opacity="0" result="BackgroundImageFix"/>
<feBlend mode="normal" in="SourceGraphic" in2="BackgroundImageFix" result="shape"/>
<feGaussianBlur stdDeviation="7.5" result="effect1_foregroundBlur_11_17"/>
</filter>
<filter id="filter2_f_11_17" x="58" y="25.3384" width="48.387" height="48.3872" filterUnits="userSpaceOnUse" color-interpolation-filters="sRGB">
<feFlood flood-opacity="0" result="BackgroundImageFix"/>
<feBlend mode="normal" in="SourceGraphic" in2="BackgroundImageFix" result="shape"/>
<feGaussianBlur stdDeviation="1" result="effect1_foregroundBlur_11_17"/>
</filter>
<clipPath id="clip0_11_17">
<rect width="197" height="132" fill="white"/>
</clipPath>
</defs>
</svg>
