<svg width="391" height="192" viewBox="0 0 391 192" fill="none" xmlns="http://www.w3.org/2000/svg">
<path d="M8.392 120.416C7.21867 121.179 5.72267 121.237 3.904 120.592C2.02667 119.947 0.853333 118.949 0.384 117.6C0.149333 116.837 0.207999 116.133 0.559999 115.488C0.735999 115.253 0.941333 114.989 1.176 114.696L1.88 113.904C4.696 110.853 8.27467 107.568 12.616 104.048C19.128 98.768 26.9013 93.4293 35.936 88.032C37.4613 87.152 38.7813 85.8027 39.896 83.984C55.912 58.288 72.368 37.344 89.264 21.152L90.76 19.832L92.256 18.6C95.1307 16.136 98.064 15.696 101.056 17.28C101.877 17.6907 102.523 17.4267 102.992 16.488C105.28 11.2667 107.392 7.18933 109.328 4.25599C110.677 2.20266 111.968 1.02933 113.2 0.735988C114.491 0.442655 116.221 0.853323 118.392 1.96799C120.328 2.96532 121.501 3.96266 121.912 4.96C122.323 6.016 122.147 7.54133 121.384 9.53599L117.248 20.272L113.112 30.92C109.885 39.4267 107.304 46.6133 105.368 52.48C105.016 53.6533 104.723 54.6507 104.488 55.472C108.653 54.0053 112.379 52.744 115.664 51.688C131.269 46.7013 144.411 43.2987 155.088 41.48C159.664 40.776 163.243 40.688 165.824 41.216C168.171 41.6853 170.019 42.6827 171.368 44.208L171.632 44.56L171.896 44.912C172.013 45.2053 171.984 45.4987 171.808 45.792C171.691 46.0267 171.485 46.1733 171.192 46.232C170.957 46.2907 170.693 46.2907 170.4 46.232C167.995 45.6453 165.237 45.6747 162.128 46.32C161.072 46.5547 159.723 46.936 158.08 47.464L154.032 48.608C139.248 52.656 121.765 59.344 101.584 68.672C100.528 69.1413 99.824 69.992 99.472 71.224C87.328 113.933 79.144 146.347 74.92 168.464C74.5093 170.635 74.04 173.509 73.512 177.088L72.104 185.712C71.9867 186.651 72.104 187.443 72.456 188.088C72.8667 188.909 72.8373 189.672 72.368 190.376C71.84 191.08 71.0773 191.432 70.08 191.432C68.32 191.491 66.648 190.933 65.064 189.76C63.48 188.587 62.4827 187.12 62.072 185.36C61.4853 182.779 61.28 179.699 61.456 176.12C62.2773 156.819 64.976 138.016 69.552 119.712C70.9013 114.373 72.632 107.979 74.744 100.528L77.472 91.024L80.2 81.432L80.904 78.616C78.5573 79.7893 75.3307 81.4613 71.224 83.632L66.56 86.096L61.984 88.472L61.192 88.912L60.4 89.352C54.3573 91.64 49.4293 96.48 45.616 103.872C36.5227 121.648 30.656 136.637 28.016 148.84L27.4 151.568C27.224 152.565 27.1067 153.475 27.048 154.296C26.872 156.408 27.048 158.285 27.576 159.928C27.8107 160.632 27.7227 161.072 27.312 161.248C27.136 161.307 26.9013 161.336 26.608 161.336H25.904C22.56 160.749 20.2427 158.608 18.952 154.912C18.1307 152.507 17.896 149.221 18.248 145.056C19.0107 135.963 21.3573 125.725 25.288 114.344C26.1093 111.997 26.7253 110.267 27.136 109.152C27.1947 109.093 27.136 108.917 26.96 108.624C23.3227 111.029 20.008 113.171 17.016 115.048C16.8987 115.048 16.7813 115.107 16.664 115.224C16.8987 116.339 16.6347 117.013 15.872 117.248L15.344 117.424L14.728 117.512C14.2587 117.571 13.936 117.659 13.76 117.776L11.12 119.096L8.392 120.416ZM93.664 38.752C91.552 40.5707 86.7707 46.0853 79.32 55.296C71.8693 64.448 67.9093 69.6987 67.44 71.048L76.064 67.264L84.688 63.48C85.0987 63.304 85.4213 62.9813 85.656 62.512L85.92 61.984L86.096 61.368L87.768 56.176L89.44 51.072C89.968 49.3707 90.6427 47.3467 91.464 45L92.52 41.92L93.664 38.752ZM182.798 128.072C178.692 129.715 174.702 129.304 170.83 126.84C166.958 124.317 164.846 120.827 164.494 116.368C164.084 111.088 164.905 106.483 166.958 102.552C167.956 100.675 169.129 98.3867 170.478 95.688L172.15 92.08L173.998 88.384C172.532 89.264 171.006 90.6133 169.422 92.432C162.324 100.352 156.516 108.243 151.998 116.104C150.062 119.565 148.068 122.293 146.014 124.288C144.724 125.461 143.374 125.843 141.966 125.432C139.62 124.728 137.86 123.731 136.686 122.44C135.22 120.856 134.692 118.773 135.102 116.192C135.689 112.672 136.921 109.123 138.798 105.544C141.614 100.264 143.697 96.304 145.046 93.664L145.31 93.224L145.486 92.784C145.662 92.3733 145.721 91.992 145.662 91.64C144.196 92.7547 142.612 94.192 140.91 95.952L138.798 98.328L136.686 100.616C130.82 107.187 123.692 116.28 115.302 127.896C113.894 129.773 112.046 130.36 109.758 129.656C102.66 127.603 99.8437 122.352 101.31 113.904C101.838 110.912 102.748 108.184 104.038 105.72C108.145 96.9787 112.838 88.7067 118.118 80.904C119.116 79.4373 120.025 78.5573 120.846 78.264C121.726 77.9707 122.988 78.1173 124.63 78.704C125.921 79.1733 127.094 79.76 128.15 80.464C129.969 81.6373 131.084 82.752 131.494 83.808C131.846 84.9227 131.7 86.4773 131.054 88.472C130.526 90.232 129.793 92.256 128.854 94.544L127.622 97.624L126.39 100.616C125.804 101.907 125.481 102.992 125.422 103.872L127.534 101.672L129.558 99.472C136.892 91.4347 142.67 85.6267 146.894 82.048C147.54 81.52 148.332 80.9333 149.27 80.288L151.734 78.616C153.67 77.3253 156.046 77.648 158.862 79.584C160.857 80.8747 161.59 82.7813 161.062 85.304C160.71 87.0053 160.094 89.0293 159.214 91.376L157.982 94.28L156.838 97.184L156.486 98.152L156.046 99.208L156.398 99.384L159.302 95.952L162.118 92.52C165.11 88.7067 168.894 85.0107 173.47 81.432C176.932 78.7333 180.452 78.704 184.03 81.344C186.084 82.8107 187.081 84.8053 187.022 87.328C186.964 91.1413 186.054 95.16 184.294 99.384C183.121 102.317 181.361 106.776 179.014 112.76C177.958 115.341 177.401 117.717 177.342 119.888C177.812 119.829 178.31 119.683 178.838 119.448L179.542 119.096L180.158 118.656C183.326 116.661 186.641 114.08 190.102 110.912C191.452 109.68 192.977 108.243 194.678 106.6L199.166 102.112C202.686 98.592 205.473 96.0693 207.526 94.544C209.169 93.3707 210.724 93.2533 212.19 94.192C213.305 94.9547 213.54 95.8347 212.894 96.832L212.278 97.8L211.662 98.68L206.03 105.368C203.918 107.891 202.012 110.091 200.31 111.968C195.969 116.837 191.862 120.973 187.99 124.376L186.758 125.432L185.526 126.488C184.588 127.192 183.678 127.72 182.798 128.072ZM216.839 123.232C216.487 123.525 216.223 123.701 216.047 123.76C215.753 123.877 215.489 123.965 215.255 124.024C213.025 124.728 210.796 124.581 208.567 123.584C204.988 122.117 202.847 119.272 202.143 115.048C201.321 109.827 203.844 103.08 209.711 94.808C211.06 93.048 212.82 92.608 214.991 93.488C215.988 93.84 217.132 94.4853 218.423 95.424C219.831 96.5973 220.681 97.6827 220.975 98.68C221.209 99.6773 220.388 101.672 218.511 104.664C216.692 107.656 215.02 111.821 213.495 117.16C217.015 113.581 219.772 110.912 221.767 109.152L223.791 106.952L226.871 103.696C229.921 100.235 233.529 96.48 237.695 92.432C240.217 90.0267 244.031 86.5067 249.135 81.872C250.719 80.4053 251.98 79.584 252.919 79.408C253.799 79.232 254.943 79.5547 256.351 80.376C259.636 82.2533 260.956 84.9227 260.311 88.384C259.959 90.496 259.225 92.8427 258.111 95.424L256.527 98.768L254.943 102.112L253.183 105.632L251.599 109.152C250.367 111.851 249.399 114.344 248.695 116.632C249.399 116.163 250.103 115.547 250.807 114.784L251.687 113.728L252.567 112.76C256.673 107.715 260.369 103.725 263.655 100.792C265.473 99.208 267.292 99.208 269.111 100.792C270.401 101.848 270.636 102.992 269.815 104.224C263.479 113.845 258.081 120.533 253.623 124.288C251.921 125.696 250.572 126.605 249.575 127.016C247.932 127.603 246.289 127.485 244.647 126.664C240.071 124.493 237.519 121.296 236.991 117.072C236.756 114.725 236.991 112.027 237.695 108.976C238.047 107.627 238.604 106.043 239.367 104.224L240.247 101.848L241.215 99.472L241.479 99.032L241.743 98.504C241.919 98.152 241.948 97.8 241.831 97.448C241.479 97.448 241.156 97.5947 240.863 97.888L240.511 98.24L240.159 98.592C237.401 101.349 234.204 104.84 230.567 109.064C223.879 116.397 219.713 120.797 218.071 122.264L216.751 123.496L216.839 123.232ZM269.674 128.952C264.336 126.84 261.49 123.173 261.138 117.952C260.728 113.2 261.813 108.155 264.394 102.816C269.146 92.7253 276.421 85.1573 286.218 80.112C292.32 76.944 298.538 77.3547 304.874 81.344C305.93 81.9307 306.752 82.1653 307.338 82.048C308.218 81.9307 309.362 82.136 310.77 82.664C312.589 83.4267 313.674 84.2187 314.026 85.04C314.32 85.8613 314.114 87.1813 313.41 89C312.296 91.8747 310.712 95.248 308.658 99.12L306.018 104.048L303.378 108.976C301.618 112.379 300.474 115.224 299.946 117.512C299.594 119.037 299.506 120.181 299.682 120.944C300.504 120.651 301.325 120.211 302.146 119.624L303.29 118.832L304.346 117.952C306.869 115.84 309.656 113.317 312.706 110.384L316.754 106.512L320.802 102.552C322.562 100.675 324.234 100.059 325.818 100.704C327.52 101.467 327.901 102.523 326.962 103.872L324.322 107.832L321.77 111.792C319.717 114.843 317.81 117.365 316.05 119.36C313.938 121.824 311.621 123.907 309.098 125.608C304.933 128.424 300.856 129.128 296.866 127.72C292.936 126.253 290.266 123.085 288.858 118.216C288.506 118.333 288.154 118.597 287.802 119.008L287.45 119.536L287.01 120.064L284.282 123.056L281.466 126.048C278.005 129.744 274.074 130.712 269.674 128.952ZM277.154 115.576L276.89 116.104C276.714 116.573 276.656 117.043 276.714 117.512L277.066 117.424C277.184 117.365 277.272 117.307 277.33 117.248L278.65 116.104L279.97 114.872C283.373 111.587 286.893 107.568 290.53 102.816C291.938 100.997 293.522 98.856 295.282 96.392L299.946 89.88L300.122 89.616L300.298 89.352C300.416 89.1173 300.386 88.912 300.21 88.736C299.917 88.5013 299.624 88.472 299.33 88.648L299.066 88.912L298.714 89.176C288.917 96.3333 281.818 104.928 277.418 114.96L277.154 115.576ZM344.194 132.648C338.562 136.579 332.871 136.901 327.122 133.616C319.495 129.392 315.535 123.672 315.242 116.456C315.242 113.875 315.77 111.44 316.826 109.152C322.81 96.1867 329.908 85.6853 338.122 77.648C340.644 75.1253 343.695 73.1307 347.274 71.664C350.442 70.3733 354.05 70.696 358.098 72.632C361.794 74.392 364.199 76.5333 365.314 79.056C366.018 80.5227 366.282 81.9013 366.106 83.192C365.402 87.592 363.084 91.4053 359.154 94.632C357.98 95.6293 356.543 95.864 354.842 95.336C353.14 94.808 351.762 93.7227 350.706 92.08C350.295 91.4347 349.972 91.1413 349.738 91.2C349.503 91.2 349.18 91.464 348.77 91.992C343.372 99.0907 338.914 106.189 335.394 113.288C334.22 115.576 333.34 118.392 332.754 121.736L332.578 122.264L332.49 122.88C332.431 123.291 332.519 123.613 332.754 123.848C332.988 124.083 333.34 124.112 333.81 123.936L334.25 123.672L334.778 123.496C344.692 119.976 354.695 114.227 364.786 106.248L369.274 102.728L373.762 99.208C377.223 96.6267 380.42 94.5733 383.354 93.048C385.348 91.9333 387.138 91.9333 388.722 93.048C390.071 94.104 390.13 95.1013 388.898 96.04C385.495 98.5627 381.74 101.584 377.634 105.104L372.178 109.768L366.722 114.52C357.452 122.675 349.943 128.717 344.194 132.648Z" fill="#BE8A3B"/>
</svg>
